<svg width="65" height="66" viewBox="0 0 65 66" fill="none" xmlns="http://www.w3.org/2000/svg">
<path d="M51.459 39.875H43.334" stroke="#CA024F" stroke-width="2" stroke-linecap="round" stroke-linejoin="round"/>
<path d="M13.541 39.875H20.3118" stroke="#CA024F" stroke-width="2" stroke-linecap="round" stroke-linejoin="round"/>
<path d="M44.9011 8.25H20.1002C19.3929 8.25 18.7382 8.6236 18.3784 9.23254L11.4146 21.0175C11.0547 21.6264 10.4 22 9.69272 22H4.70898C3.60441 22 2.70898 22.8954 2.70898 24V26.2724C2.70898 27.0255 3.13206 27.7148 3.8036 28.0557L5.68698 29.0119C6.89389 29.6246 7.15633 31.2342 6.20656 32.1986L3.28402 35.1661C2.91553 35.5403 2.70898 36.0444 2.70898 36.5695V45.9305C2.70898 46.4556 2.91553 46.9597 3.28402 47.3339L4.84229 48.9161C5.21077 49.2903 5.41732 49.7944 5.41732 50.3195V55.75C5.41732 56.8546 6.31275 57.75 7.41732 57.75H16.959C18.0636 57.75 18.959 56.8546 18.959 55.75V51.5C18.959 50.3954 19.8544 49.5 20.959 49.5H44.0423C45.1469 49.5 46.0423 50.3954 46.0423 51.5V55.75C46.0423 56.8546 46.9378 57.75 48.0423 57.75H57.584C58.6886 57.75 59.584 56.8546 59.584 55.75V50.3195C59.584 49.7944 59.7905 49.2903 60.159 48.9161L61.7173 47.3339C62.0858 46.9597 62.2923 46.4556 62.2923 45.9305V36.5695C62.2923 36.0444 62.0858 35.5403 61.7173 35.1661L58.7947 32.1986C57.845 31.2342 58.1074 29.6246 59.3143 29.0119L61.1977 28.0557C61.8692 27.7148 62.2923 27.0255 62.2923 26.2724V24C62.2923 22.8954 61.3969 22 60.2923 22H55.3086C54.6013 22 53.9466 21.6264 53.5867 21.0175L46.6229 9.23254C46.2631 8.6236 45.6084 8.25 44.9011 8.25Z" stroke="#CA024F" stroke-width="2"/>
</svg>
