<svg width="77" height="76" viewBox="0 0 77 76" fill="none" xmlns="http://www.w3.org/2000/svg">
<path d="M35.2917 22.1667L46.7016 10.905C47.4877 10.129 48.7623 10.129 49.5485 10.905L67.1048 28.2333C67.8966 29.0148 67.8901 30.2838 67.0903 31.0574L32.0833 64.9167" stroke="#610BEF" stroke-width="2" stroke-linecap="round" stroke-linejoin="round"/>
<path d="M6.41602 8.33398C6.41602 7.22941 7.31145 6.33398 8.41602 6.33398H33.291C34.3956 6.33398 35.291 7.22942 35.291 8.33398V58.6673C35.291 64.7425 30.3661 69.6673 24.291 69.6673H17.416C11.3409 69.6673 6.41602 64.7424 6.41602 58.6673V8.33398Z" stroke="#610BEF" stroke-width="2"/>
<path d="M57.7506 41.166H68.584C69.6886 41.166 70.584 42.0614 70.584 43.166V67.666C70.584 68.7706 69.6886 69.666 68.584 69.666H20.8548" stroke="#610BEF" stroke-width="2"/>
<path d="M22.4583 55.4173C22.4583 56.2918 21.7401 57.0007 20.8542 57.0007C19.9682 57.0007 19.25 56.2918 19.25 55.4173C19.25 54.5429 19.9682 53.834 20.8542 53.834C21.7401 53.834 22.4583 54.5429 22.4583 55.4173Z" stroke="#610BEF"/>
</svg>
