<svg width="248" height="248" viewBox="0 0 248 248" fill="none" xmlns="http://www.w3.org/2000/svg">
<g filter="url(#filter0_d_3855_47702)">
<rect x="72" y="72" width="104" height="104" rx="12" fill="#005BD4"/>
</g>
<path d="M120.086 130.424C120.086 127.614 119.216 125.205 117.477 123.198C115.737 121.057 113.529 119.652 110.853 118.983C111.121 117.243 111.79 115.437 112.86 113.563C114.065 111.556 115.336 109.95 116.674 108.746L112.66 105.334C101.553 112.694 96 121.057 96 130.424C96 133.903 97.1374 136.847 99.4122 139.255C101.821 141.53 104.698 142.667 108.043 142.667C111.388 142.667 114.198 141.463 116.473 139.054C118.882 136.646 120.086 133.769 120.086 130.424ZM152 130.424C152 127.614 151.13 125.205 149.391 123.198C147.651 121.057 145.443 119.652 142.767 118.983C143.168 117.109 143.904 115.236 144.975 113.363C146.179 111.489 147.45 109.95 148.789 108.746L144.573 105.334C133.333 112.961 127.713 121.324 127.713 130.424C127.713 133.769 128.918 136.646 131.326 139.054C133.735 141.463 136.612 142.667 139.957 142.667C143.168 142.667 145.979 141.463 148.387 139.054C150.796 136.646 152 133.769 152 130.424Z" fill="#FCFCFC"/>
<defs>
<filter id="filter0_d_3855_47702" x="0" y="0" width="248" height="248" filterUnits="userSpaceOnUse" color-interpolation-filters="sRGB">
<feFlood flood-opacity="0" result="BackgroundImageFix"/>
<feColorMatrix in="SourceAlpha" type="matrix" values="0 0 0 0 0 0 0 0 0 0 0 0 0 0 0 0 0 0 127 0" result="hardAlpha"/>
<feOffset/>
<feGaussianBlur stdDeviation="36"/>
<feColorMatrix type="matrix" values="0 0 0 0 0 0 0 0 0 0 0 0 0 0 0 0 0 0 0.04 0"/>
<feBlend mode="normal" in2="BackgroundImageFix" result="effect1_dropShadow_3855_47702"/>
<feBlend mode="normal" in="SourceGraphic" in2="effect1_dropShadow_3855_47702" result="shape"/>
</filter>
</defs>
</svg>
