<svg width="50" height="50" viewBox="0 0 50 50" fill="none" xmlns="http://www.w3.org/2000/svg">
<path fill-rule="evenodd" clip-rule="evenodd" d="M15.4907 2.45707C21.3751 -0.819022 28.6249 -0.819022 34.5093 2.45707L40.4907 5.78717C46.3751 9.06326 50 15.1177 50 21.6699V28.3301C50 34.8823 46.3751 40.9367 40.4907 44.2128L34.5093 47.5429C28.6249 50.819 21.3751 50.819 15.4907 47.5429L9.5093 44.2128C3.62492 40.9367 0 34.8823 0 28.3301V21.6699C0 15.1177 3.62493 9.06326 9.5093 5.78717L15.4907 2.45707ZM24.7643 10.7869C21.5602 10.6216 21.5602 10.623 21.5601 10.6244L21.5599 10.6273L21.5596 10.6336L21.5589 10.6482L21.5574 10.6845C21.5563 10.7119 21.5552 10.7457 21.5543 10.7855C21.5525 10.8651 21.5513 10.9692 21.5526 11.0951C21.5552 11.3463 21.5675 11.6876 21.6042 12.0974C21.6769 12.9104 21.8486 14.0297 22.2516 15.266C23.0623 17.7538 24.8745 20.8665 28.7722 22.6794C30.6051 23.5319 31.4873 24.9573 31.9383 26.3412C32.1663 27.0408 32.2673 27.6908 32.3096 28.1631C32.3304 28.396 32.3361 28.5763 32.3373 28.6861C32.3378 28.7407 32.3372 28.777 32.3369 28.7926C32.3367 28.8003 32.3366 28.8029 32.3367 28.7999L32.337 28.7912L32.3374 28.7837L32.3376 28.7791L32.3378 28.7766C32.3378 28.7753 32.3379 28.7739 35.5419 28.9392C38.746 29.1045 38.746 29.1032 38.7461 29.1018L38.7463 29.0988L38.7466 29.0925L38.7473 29.078L38.7488 29.0416C38.7499 29.0142 38.751 28.9804 38.7519 28.9406C38.7537 28.861 38.7549 28.757 38.7536 28.6311C38.751 28.3798 38.7387 28.0385 38.702 27.6287C38.6293 26.8157 38.4575 25.6965 38.0546 24.4601C37.2439 21.9723 35.4317 18.8596 31.534 17.0467C29.7011 16.1942 28.8189 14.7688 28.3678 13.3849C28.1399 12.6853 28.0389 12.0353 27.9966 11.563C27.9758 11.3301 27.9701 11.1498 27.9689 11.0401C27.9684 10.9854 27.969 10.9492 27.9693 10.9336C27.9695 10.9258 27.9696 10.9232 27.9695 10.9262L27.9691 10.9349L27.9688 10.9425L27.9685 10.9471L27.9684 10.9496C27.9683 10.9509 27.9683 10.9522 24.7643 10.7869ZM14.2845 21.2667C11.0805 21.1014 11.0804 21.1027 11.0803 21.1041L11.0802 21.1071L11.0798 21.1134L11.0791 21.1279L11.0776 21.1643C11.0765 21.1917 11.0754 21.2255 11.0745 21.2653C11.0727 21.3449 11.0715 21.4489 11.0728 21.5748C11.0754 21.8261 11.0877 22.1674 11.1244 22.5772C11.1971 23.3902 11.3689 24.5094 11.7718 25.7458C12.5825 28.2336 14.3947 31.3463 18.2924 33.1592C20.1253 34.0117 21.0076 35.4371 21.4586 36.821C21.6865 37.5206 21.7875 38.1706 21.8298 38.6429C21.8506 38.8758 21.8564 39.0561 21.8575 39.1658C21.858 39.2205 21.8574 39.2567 21.8571 39.2723C21.857 39.278 21.8569 39.2809 21.8569 39.2809L21.8569 39.2797L21.8573 39.271L21.8576 39.2634L21.8579 39.2588L21.858 39.2563C21.8581 39.255 21.8581 39.2537 25.0622 39.419C28.2662 39.5843 28.2663 39.5829 28.2663 39.5815L28.2665 39.5786L28.2668 39.5723L28.2675 39.5577L28.269 39.5214C28.2701 39.494 28.2712 39.4602 28.2721 39.4204C28.274 39.3408 28.2751 39.2367 28.2738 39.1109C28.2712 38.8596 28.2589 38.5183 28.2223 38.1085C28.1495 37.2955 27.9778 36.1762 27.5749 34.9399C26.7641 32.4521 24.9519 29.3394 21.0543 27.5265C19.2213 26.674 18.3391 25.2486 17.8881 23.8647C17.6601 23.1651 17.5591 22.5151 17.5169 22.0428C17.496 21.8099 17.4903 21.6296 17.4892 21.5198C17.4886 21.4652 17.4892 21.429 17.4896 21.4133L17.4897 21.406L17.4894 21.4147L17.489 21.4222L17.4888 21.4268L17.4886 21.4293C17.4886 21.4306 17.4885 21.432 14.2845 21.2667Z" fill="#14142B"/>
</svg>
