<svg width="30" height="30" viewBox="0 0 30 30" fill="none" xmlns="http://www.w3.org/2000/svg">
<path fill-rule="evenodd" clip-rule="evenodd" d="M9.29442 1.47424C12.825 -0.491413 17.175 -0.491413 20.7056 1.47424L24.2944 3.4723C27.825 5.43796 30 9.07063 30 13.0019V16.9981C30 20.9294 27.825 24.562 24.2944 26.5277L20.7056 28.5258C17.175 30.4914 12.825 30.4914 9.29442 28.5258L5.70558 26.5277C2.17495 24.562 0 20.9294 0 16.9981V13.0019C0 9.07063 2.17496 5.43796 5.70558 3.4723L9.29442 1.47424ZM14.8577 6.47664C12.9353 6.37745 12.9352 6.37828 12.9352 6.37912L12.9351 6.38089L12.9349 6.38469L12.9345 6.39341L12.9335 6.4152C12.9329 6.43165 12.9322 6.45191 12.9317 6.47581C12.9306 6.52357 12.9299 6.586 12.9307 6.66154C12.9322 6.81228 12.9396 7.01708 12.9616 7.26296C13.0053 7.75076 13.1083 8.4223 13.3501 9.16409C13.8365 10.6568 14.9238 12.5244 17.2624 13.6121C18.3622 14.1237 18.8915 14.9789 19.1621 15.8093C19.2989 16.229 19.3595 16.619 19.3848 16.9024C19.3973 17.0421 19.4008 17.1503 19.4015 17.2161C19.4018 17.2489 19.4014 17.2707 19.4012 17.28C19.4012 17.2834 19.4011 17.2852 19.4011 17.2852L19.4011 17.2844L19.4013 17.2792L19.4016 17.2747L19.4017 17.2719L19.4018 17.2704C19.4018 17.2697 19.4019 17.2689 21.3243 17.368C23.2467 17.4672 23.2467 17.4664 23.2468 17.4656L23.2469 17.4638L23.2471 17.46L23.2475 17.4513L23.2484 17.4295C23.249 17.413 23.2497 17.3928 23.2502 17.3689C23.2514 17.3211 23.252 17.2587 23.2513 17.1832C23.2497 17.0324 23.2423 16.8276 23.2203 16.5817C23.1767 16.0939 23.0736 15.4224 22.8319 14.6806C22.3454 13.1879 21.2581 11.3203 18.9195 10.2325C17.8198 9.72101 17.2904 8.86578 17.0198 8.03543C16.883 7.61571 16.8224 7.22569 16.7971 6.9423C16.7846 6.80259 16.7811 6.69439 16.7805 6.62854C16.7801 6.59577 16.7805 6.57401 16.7807 6.56464L16.7808 6.56024L16.7806 6.56546L16.7804 6.56999L16.7802 6.57274L16.7802 6.57424C16.7801 6.57503 16.7801 6.57582 14.8577 6.47664ZM8.5686 12.7657C6.64619 12.6665 6.64614 12.6673 6.6461 12.6682L6.64601 12.6699L6.64582 12.6738L6.6454 12.6825L6.64448 12.7043C6.64384 12.7207 6.64319 12.741 6.64263 12.7649C6.64152 12.8126 6.64083 12.8751 6.64161 12.9506C6.64315 13.1013 6.65055 13.3061 6.67255 13.552C6.71619 14.0398 6.81924 14.7114 7.06099 15.4532C7.54745 16.9458 8.63475 18.8135 10.9733 19.9012C12.0731 20.4127 12.6025 21.268 12.8731 22.0983C13.0098 22.518 13.0704 22.9081 13.0958 23.1914C13.1083 23.3312 13.1117 23.4394 13.1124 23.5052C13.1127 23.538 13.1124 23.5597 13.1122 23.5691C13.1121 23.5738 13.112 23.5753 13.1121 23.5735L13.1123 23.5683L13.1125 23.5638L13.1126 23.561L13.1127 23.5595C13.1128 23.5587 13.1128 23.5579 15.0352 23.6571C16.9576 23.7563 16.9577 23.7555 16.9577 23.7546L16.9578 23.7529L16.958 23.7491L16.9584 23.7403L16.9593 23.7185C16.96 23.7021 16.9606 23.6818 16.9612 23.6579C16.9623 23.6102 16.963 23.5477 16.9622 23.4722C16.9607 23.3215 16.9533 23.1167 16.9313 22.8708C16.8876 22.383 16.7846 21.7114 16.5428 20.9697C16.0564 19.477 14.9691 17.6093 12.6305 16.5216C11.5307 16.0101 11.0014 15.1548 10.7308 14.3245C10.594 13.9048 10.5334 13.5147 10.508 13.2314C10.4955 13.0917 10.4921 12.9835 10.4914 12.9176C10.4911 12.8848 10.4914 12.8631 10.4916 12.8537L10.4918 12.8493L10.4915 12.8545L10.4913 12.8591L10.4912 12.8618L10.4911 12.8633C10.4911 12.8641 10.491 12.8649 8.5686 12.7657Z" fill="#FCFCFC"/>
</svg>
