<svg width="67" height="48" viewBox="0 0 67 48" fill="none" xmlns="http://www.w3.org/2000/svg">
<path fill-rule="evenodd" clip-rule="evenodd" d="M0 0.837659H10.1743V28.4766C10.1743 32.8506 12.1509 35.4561 13.714 36.573C12.0592 38.0619 7.00252 39.3648 3.23303 36.2006C1.01066 34.3354 0 31.2685 0 28.3834V0.837659ZM63.5852 23.7967V20.8921H66.6883V10.7022H63.2806C61.9724 4.58434 56.5915 0 50.1562 0C42.7428 0 36.7334 6.08322 36.7334 13.5869V37.3836C38.8454 37.684 41.3615 37.3462 43.5023 35.5493C45.7244 33.6838 46.735 30.6172 46.735 27.7322V26.8554H51.8164V16.6655H46.735V13.5869H46.7472C46.7472 11.6813 48.2734 10.1365 50.1562 10.1365C52.0388 10.1365 53.571 11.6813 53.571 13.5869V23.7967C53.571 31.3003 59.5869 37.3836 67 37.3836V27.247C65.1175 27.247 63.5852 25.7022 63.5852 23.7967ZM25.0516 10.7022V25.657C25.0516 26.506 24.3557 27.1943 23.497 27.1943C22.6383 27.1943 21.9424 26.506 21.9424 25.657V10.7022H11.8751V28.2906C11.8751 31.4545 12.9352 35.4561 17.7593 36.759C22.5885 38.0633 25.39 35.3632 25.39 35.3632C25.1348 37.142 23.4797 38.4449 20.8136 38.7241C18.7964 38.9352 16.2166 38.2589 14.9297 37.7005V47.0189C18.2088 47.9977 21.677 48.3139 25.0712 47.6472C31.2309 46.4375 35.1185 41.2262 35.1185 34.2929V10.7022H25.0516Z" fill="#A0A3BD"/>
</svg>
