<svg width="67" height="68" viewBox="0 0 67 68" fill="none" xmlns="http://www.w3.org/2000/svg">
<path d="M7.94983 47.3957C5.99343 47.3135 4.3928 46.7476 3.14124 45.6964C2.90239 45.4956 2.33322 44.8935 2.14227 44.6396C1.63474 43.9649 1.2897 43.3083 1.05955 42.5798C0.351362 40.3372 0.715842 37.3944 2.10207 34.1647C3.28898 31.3998 5.12042 28.6575 8.31565 24.8594C8.78633 24.3005 10.188 22.666 10.197 22.666C10.2004 22.666 10.124 22.8059 10.0278 22.9763C9.19703 24.4475 8.48617 26.1804 8.09891 27.6807C7.47681 30.0879 7.55185 32.1538 8.31866 33.7557C8.84763 34.8593 9.75447 35.8152 10.7742 36.3436C12.5594 37.2683 15.1731 37.3448 18.365 36.5674C18.5847 36.5136 29.4742 33.4575 42.564 29.7759C55.6538 26.094 66.3654 23.0839 66.3671 23.0864C66.3708 23.0896 35.9558 36.849 20.1669 43.9872C17.6665 45.1174 16.9978 45.4028 15.8223 45.8391C12.8174 46.9548 10.1257 47.4871 7.94983 47.3957Z" fill="#A0A3BD"/>
</svg>
