<svg width="67" height="68" viewBox="0 0 67 68" fill="none" xmlns="http://www.w3.org/2000/svg">
<g clip-path="url(#clip0_3538_41360)">
<path d="M33.5 0C14.9965 0 0 15.2203 0 34C0 48.4102 8.83301 60.7086 21.2908 65.6625C21.0029 62.9664 20.7281 58.8492 21.4086 55.9141C22.0236 53.2578 25.3344 39.0203 25.3344 39.0203C25.3344 39.0203 24.3268 36.9883 24.3268 33.9734C24.3268 29.2453 27.0225 25.7125 30.3855 25.7125C33.2383 25.7125 34.6254 27.8906 34.6254 30.507C34.6254 33.4289 32.7934 37.7852 31.8512 41.8227C31.066 45.2094 33.5262 47.9719 36.8107 47.9719C42.7648 47.9719 47.3449 41.5969 47.3449 32.4062C47.3449 24.2648 41.5871 18.5672 33.3561 18.5672C23.8295 18.5672 18.2287 25.8187 18.2287 33.3227C18.2287 36.2445 19.341 39.3789 20.7281 41.0789C21.0029 41.4109 21.0422 41.7164 20.9637 42.0484C20.715 43.1242 20.1393 45.4352 20.0346 45.9C19.8906 46.5242 19.5504 46.657 18.9092 46.3516C14.7217 44.3727 12.1045 38.1703 12.1045 33.1766C12.1045 22.4453 19.7859 12.6039 34.2328 12.6039C45.8531 12.6039 54.8824 21.0109 54.8824 32.2469C54.8824 43.9609 47.6066 53.3906 37.5043 53.3906C34.115 53.3906 30.9221 51.5977 29.8229 49.4859C29.8229 49.4859 28.1479 55.9805 27.7422 57.5742C26.9832 60.5227 24.9418 64.2281 23.5809 66.4859C26.7215 67.4688 30.0453 68 33.5 68C52.0035 68 67 52.7797 67 34C67 15.2203 52.0035 0 33.5 0Z" fill="#A0A3BD"/>
</g>
<defs>
<clipPath id="clip0_3538_41360">
<rect width="67" height="68" fill="white"/>
</clipPath>
</defs>
</svg>
