<svg width="68" height="68" viewBox="0 0 68 68" fill="none" xmlns="http://www.w3.org/2000/svg">
<path d="M67.9171 51.5091C67.6206 50.5124 66.202 49.8098 66.202 49.8098C66.0679 49.7381 65.9479 49.6735 65.8491 49.6234C63.4848 48.4618 61.3886 47.0637 59.6242 45.4791C58.2056 44.2029 56.9917 42.7976 56.0177 41.3062C54.8249 39.485 54.2674 37.965 54.0274 37.1404C53.8933 36.6027 53.9145 36.3876 54.0274 36.108C54.1192 35.8714 54.3944 35.6491 54.5215 35.5415C55.319 34.9679 56.6035 34.1219 57.394 33.6057C58.0786 33.1539 58.6643 32.7668 59.0102 32.523C60.1182 31.7343 60.8805 30.9312 61.3251 30.0637C61.9039 28.9452 61.9744 27.7119 61.5227 26.5002C60.9158 24.8655 59.4125 23.8903 57.4998 23.8903C57.0764 23.8903 56.6388 23.9405 56.2012 24.0337C55.1072 24.2775 54.0698 24.6719 53.2017 25.016C53.1381 25.0447 53.0676 24.9945 53.0746 24.9228C53.1664 22.736 53.2722 19.7963 53.0323 17.0072C52.8205 14.4833 52.3053 12.3539 51.4725 10.4968C50.6326 8.63264 49.5387 7.25601 48.6847 6.25938C47.8731 5.31295 46.4403 3.9148 44.2807 2.66006C41.2458 0.896246 37.7875 0 34.0046 0C30.2287 0 26.7775 0.896246 23.7356 2.66006C21.4489 3.9865 19.9879 5.48503 19.3245 6.25938C18.4705 7.25601 17.3765 8.63264 16.5367 10.4968C15.6968 12.3539 15.1886 14.4762 14.9769 17.0072C14.7369 19.8106 14.8357 22.5137 14.9346 24.9228C14.9346 24.9945 14.871 25.0447 14.8005 25.016C13.9324 24.6719 12.8949 24.2775 11.8009 24.0337C11.3704 23.9405 10.9328 23.8903 10.5023 23.8903C8.5967 23.8903 7.0934 24.8655 6.47937 26.5002C6.02768 27.7119 6.09826 28.9452 6.67699 30.0637C7.12869 30.9312 7.88387 31.7343 8.99193 32.523C9.3307 32.7668 9.92355 33.1539 10.6082 33.6057C11.3774 34.1147 12.6267 34.9393 13.4313 35.5057C13.5301 35.5774 13.8688 35.8355 13.9747 36.108C14.0876 36.3948 14.1088 36.6099 13.9606 37.1835C13.7136 38.0152 13.156 39.5209 11.9844 41.3062C11.0104 42.8047 9.79651 44.2029 8.37791 45.4791C6.61347 47.0637 4.51732 48.4618 2.15298 49.6234C2.04005 49.6807 1.90595 49.7453 1.7648 49.8313C1.7648 49.8313 0.35325 50.5626 0.0850554 51.5091C-0.310178 52.9072 0.741426 54.2193 1.80715 54.922C3.55747 56.0692 5.68891 56.6858 6.92401 57.0228C7.26984 57.116 7.58038 57.202 7.86269 57.2881C8.03914 57.3454 8.48377 57.5175 8.67433 57.7685C8.9143 58.0839 8.94253 58.4711 9.02722 58.9085C9.16132 59.647 9.4648 60.5576 10.3611 61.1885C11.3492 61.8768 12.5984 61.927 14.1864 61.9916C15.845 62.0561 17.9059 62.135 20.2702 62.9308C21.3642 63.2965 22.3593 63.9203 23.5027 64.6373C25.9023 66.1358 28.8877 68 33.9834 68C39.0862 68 42.0928 66.1286 44.5065 64.6229C45.6499 63.9131 46.6309 63.2965 47.7037 62.938C50.068 62.1421 52.1289 62.0633 53.7874 61.9987C55.3754 61.9342 56.6247 61.8912 57.6127 61.1957C58.5726 60.5217 58.8479 59.5179 58.9749 58.7651C59.0455 58.3922 59.0878 58.0552 59.2995 57.7828C59.4831 57.5462 59.8924 57.3813 60.083 57.3167C60.3723 57.2235 60.697 57.1375 61.0569 57.0371C62.292 56.7001 63.8447 56.3058 65.7292 55.2231C68.0017 53.911 68.157 52.3049 67.9171 51.5091Z" fill="#A0A3BD"/>
</svg>
