<svg width="67" height="68" viewBox="0 0 67 68" fill="none" xmlns="http://www.w3.org/2000/svg">
<path d="M36.8359 14.8002C36.5532 14.7425 35.1397 14.5117 33.4717 14.5117C31.8038 14.5117 30.3903 14.7425 30.1076 14.8002C29.938 14.829 29.8814 14.6559 29.9945 14.5694C30.1076 14.4828 33.4717 11.8574 33.4717 11.8574C33.4717 11.8574 36.8359 14.4828 36.9489 14.5694C37.062 14.6559 37.0055 14.829 36.8359 14.8002V14.8002ZM31.0122 31.7641C31.0122 31.7641 30.8426 31.8218 30.7861 31.9949C31.4928 32.5431 31.9734 33.8125 33.4435 33.8125C34.9135 33.8125 35.3941 32.5431 36.1008 31.9949C36.0443 31.8218 35.8747 31.7641 35.8747 31.7641C35.8747 31.7641 34.9418 31.9949 33.4435 31.9949C31.9451 31.9949 31.0122 31.7641 31.0122 31.7641V31.7641ZM33.4435 29.658C33.0477 29.658 32.9346 29.5138 32.6802 29.5138C32.4257 29.5138 31.8886 29.7446 31.7755 29.9177C31.7755 30.0042 31.8321 30.0908 31.8886 30.1773C32.4823 30.2639 32.765 30.6101 33.4435 30.6101C34.1219 30.6101 34.4046 30.2639 34.9983 30.1773C35.0831 30.0908 35.1114 30.0042 35.1114 29.9177C34.9983 29.7157 34.4895 29.5138 34.2068 29.5138C33.9523 29.4849 33.8675 29.658 33.4435 29.658ZM66.9717 36.1205C66.9152 36.9283 66.8586 37.765 66.7738 38.5439C62.9857 39.1786 61.6287 35.7454 57.7274 35.8897C57.9536 36.7263 58.1515 37.5919 58.2928 38.4574C61.5156 38.4574 62.7878 41.5155 66.3781 41.0539C66.1802 41.9771 65.954 42.9003 65.6996 43.8235C62.8726 44.112 61.8831 41.2558 58.6038 41.3135C58.6321 41.804 58.6321 42.2656 58.6321 42.756C58.6321 43.0157 58.6321 43.3042 58.6038 43.5639C61.4025 43.535 62.3072 46.1604 64.9646 46.045C64.6253 46.9682 64.2578 47.8625 63.862 48.7569C61.9397 48.6415 61.2894 46.1604 58.4059 46.3623C58.3211 46.997 58.208 47.6317 58.0667 48.2664C60.5827 48.0933 61.1198 50.4591 62.9291 50.6322C62.4768 51.4977 61.9679 52.3343 61.4591 53.1421C60.3848 52.5651 59.4519 50.8053 57.4447 50.6899C57.6426 50.0263 57.8405 49.3628 57.9819 48.6992C56.1726 48.6992 54.1371 47.9779 52.4127 46.3912C52.9781 43.1311 48.0308 39.8422 48.0308 37.4476C48.0308 34.8799 49.303 33.4374 49.303 29.9465C49.303 27.35 48.0591 24.5515 46.2215 22.6474C45.854 22.2724 45.4865 21.9839 45.0624 21.6954C46.7586 23.8591 48.0873 26.398 48.0873 29.3695C48.0873 32.6585 46.589 34.3895 46.589 37.4188C46.589 40.448 50.9426 43.0734 50.9426 46.1892C50.9426 47.4298 50.5468 48.6126 49.303 50.9784C51.2536 52.969 53.7979 54.0365 55.4375 54.0365C55.9747 54.0365 56.2574 53.8634 56.4553 53.4595C56.6249 53.0844 56.7662 52.7094 56.9076 52.3343C58.6603 52.392 59.4802 54.0365 60.4414 54.7C59.9042 55.4213 59.3388 56.1426 58.7451 56.835C58.0949 56.0849 57.2186 54.8443 55.9181 54.4981C55.692 54.9597 55.4376 55.3925 55.1831 55.8541C56.2857 56.1714 57.0489 57.2966 57.6426 58.0467C57.0207 58.7102 56.3422 59.3449 55.6637 59.9796C55.2397 59.3161 54.5612 58.4506 53.8262 57.9601L52.9781 59.0853C53.6283 59.518 54.1654 60.3258 54.5329 60.9605C53.7413 61.6241 52.9215 62.23 52.0734 62.807C51.6494 59.3161 47.0131 56.9504 48.257 52.9113C47.8329 53.6326 47.3523 54.5269 47.3523 55.5944C47.3523 58.5083 50.4055 60.8451 50.6316 63.7302C50.0097 64.1052 49.3595 64.4803 48.681 64.8265C48.5679 61.6241 45.3451 58.1332 45.3451 55.5367C45.3451 52.6228 49.1051 49.6801 49.1051 46.2181C49.1051 42.756 44.7797 40.3615 44.7797 37.3322C44.7797 34.3029 46.6173 32.5719 46.6173 28.6771C46.6173 25.821 45.2886 22.9648 43.2532 21.1184C42.8857 20.801 42.5464 20.5414 42.0941 20.3106C44.0165 22.6763 45.1473 24.8112 45.1473 28.0713C45.1473 31.7353 43.027 33.7548 43.027 37.3322C43.027 40.9096 47.2675 42.9003 47.2675 46.2181C47.2675 49.5359 43.3097 52.3632 43.3097 55.7963C43.3097 58.9122 46.7869 62.028 46.8435 65.7208C46.0802 66.067 45.3169 66.3844 44.5253 66.644C44.9776 62.9224 41.0481 59.0564 41.0481 55.9983C41.0481 52.6805 45.1473 49.7955 45.1473 46.2181C45.1473 42.6406 40.9916 40.9673 40.9916 37.2745C40.9916 33.5817 43.5641 31.5333 43.5641 27.4654C43.5641 24.2919 42.0376 21.4357 39.7759 19.6759C39.7194 19.647 39.6911 19.5893 39.6346 19.5605C39.4367 19.3874 39.2388 19.5893 39.4084 19.7913C40.9916 21.8108 41.8397 23.8591 41.8397 26.8884C41.8397 30.6101 38.8996 33.6394 38.8996 37.2457C38.8996 41.5155 42.8574 42.7272 42.8574 46.2181C42.8574 49.709 38.6169 52.5074 38.6169 56.2291C38.6169 59.6623 42.6312 63.4994 41.9245 67.4518C41.1329 67.6538 40.3131 67.8557 39.4932 68C40.2565 63.0666 36.327 59.4892 36.327 56.258C36.327 52.7671 40.7089 49.6224 40.7089 46.2181C40.7089 42.9868 37.5709 41.9482 37.1468 38.6305C37.0903 38.1689 36.7228 37.8515 36.2422 37.9381C35.592 38.0535 34.7722 38.4862 33.5 38.4862C32.1996 38.4862 31.408 38.0535 30.7578 37.9381C30.2772 37.8515 29.9097 38.1977 29.8532 38.6305C29.4291 41.9482 26.2911 42.9868 26.2911 46.2181C26.2911 49.6513 30.673 52.7671 30.673 56.258C30.673 59.4892 26.7435 63.0378 27.5067 68C26.6869 67.8557 25.8671 67.6538 25.0755 67.4518C24.397 63.4705 28.3831 59.6623 28.3831 56.2291C28.3831 52.5074 24.1426 49.709 24.1426 46.2181C24.1426 42.7272 28.1004 41.5155 28.1004 37.2457C28.1004 33.6394 25.1603 30.6101 25.1603 26.8884C25.1603 23.8591 26.0084 21.8108 27.5916 19.7913C27.7329 19.5893 27.5633 19.4162 27.3654 19.5605C27.3089 19.5893 27.2806 19.647 27.224 19.6759C24.9907 21.4357 23.4359 24.2919 23.4359 27.4654C23.4359 31.5333 26.0084 33.5817 26.0084 37.2745C26.0084 40.9673 21.8527 42.6406 21.8527 46.2181C21.8527 49.7955 25.9519 52.6805 25.9519 55.9983C25.9519 59.0564 22.0224 62.8935 22.4747 66.644C21.6831 66.3555 20.9198 66.067 20.1565 65.7208C20.2131 62.028 23.6903 58.9122 23.6903 55.7963C23.6903 52.3632 19.7325 49.5647 19.7325 46.2181C19.7325 42.8714 23.973 40.9096 23.973 37.3322C23.973 33.7548 21.8527 31.7353 21.8527 28.0713C21.8527 24.8112 22.9835 22.6763 24.9059 20.3106C24.4819 20.5414 24.1143 20.801 23.7468 21.1184C21.7114 22.9648 20.3827 25.8498 20.3827 28.6771C20.3827 32.5719 22.2203 34.3029 22.2203 37.3322C22.2203 40.3615 17.8949 42.756 17.8949 46.2181C17.8949 49.6801 21.6549 52.594 21.6549 55.5367C21.6549 58.1621 18.4321 61.6529 18.319 64.8265C17.6688 64.4803 17.0186 64.1341 16.3684 63.7302C16.6228 60.8163 19.6759 58.5083 19.6759 55.5944C19.6759 54.5269 19.1954 53.6326 18.7713 52.9113C20.0152 56.9504 15.3789 59.3449 14.9549 62.807C14.1068 62.23 13.2869 61.6241 12.4954 60.9605C12.8629 60.3258 13.4283 59.518 14.0502 59.0853C13.7675 58.7102 13.4565 58.364 13.2021 57.9601C12.4388 58.4217 11.7886 59.2872 11.3646 59.9796C10.6861 59.3738 10.0076 58.7102 9.38565 58.0467C9.97932 57.2966 10.7426 56.1426 11.8451 55.8541C11.5907 55.4213 11.3363 54.9597 11.1101 54.4981C9.8097 54.8443 8.93333 56.0849 8.28312 56.835C7.68945 56.1426 7.12405 55.4502 6.58692 54.7C7.57637 54.0365 8.36793 52.4209 10.1489 52.3343C10.2903 52.7094 10.4599 53.0844 10.6013 53.4595C10.7992 53.8922 11.0819 54.0365 11.619 54.0365C13.2587 54.0365 15.803 52.9402 17.7536 50.9784C16.4814 48.6126 16.1139 47.4298 16.1139 46.1892C16.1139 43.0734 20.4675 40.448 20.4675 37.4188C20.4675 34.3895 18.9692 32.6585 18.9692 29.3695C18.9692 26.398 20.2696 23.8591 21.9941 21.6954C21.57 21.955 21.2025 22.2724 20.835 22.6474C18.9692 24.5515 17.7536 27.3789 17.7536 29.9465C17.7536 33.4374 19.0257 34.8511 19.0257 37.4476C19.0257 39.8422 14.0785 43.1311 14.6439 46.3912C12.9194 48.0068 10.8557 48.6992 9.04641 48.6992C9.21603 49.3628 9.38565 50.0263 9.58354 50.6899C7.5481 50.8053 6.61519 52.5651 5.5692 53.1421C5.03207 52.3343 4.55148 51.4977 4.09916 50.6322C5.90844 50.4302 6.44557 48.0645 8.9616 48.2664C8.82025 47.6317 8.70717 46.997 8.62236 46.3623C5.71055 46.1604 5.06034 48.6703 3.16624 48.7569C2.77046 47.8625 2.40295 46.9682 2.06371 46.045C4.7211 46.1604 5.62574 43.535 8.3962 43.5639V42.756C8.3962 42.2656 8.42447 41.804 8.42447 41.3135C5.14515 41.227 4.1557 44.112 1.32869 43.8235C1.07426 42.9291 0.848101 42.0059 0.650211 41.0539C4.21224 41.5155 5.51266 38.4285 8.73544 38.4574C8.87679 37.5919 9.07468 36.7263 9.30084 35.8897C5.39958 35.7166 4.04262 39.1786 0.25443 38.5439C0.14135 37.7361 0.0848101 36.9283 0.02827 36.1205C4.4384 36.6109 6.10633 32.9181 10.1207 33.3797C10.4882 32.3988 10.9405 31.4468 11.4494 30.5235C6.4173 29.6292 4.69283 33.9279 0 33.2643C0.395781 14.8002 15.2376 0 33.4435 0C51.6776 0 66.4911 14.8002 67 33.2932C62.3072 33.9567 60.5827 29.658 55.5506 30.5524C56.0595 31.4756 56.4835 32.4277 56.8793 33.4086C60.8937 32.9181 62.5333 36.6398 66.9717 36.1205V36.1205ZM19.0257 21.7531C16.5662 20.7145 13.5696 20.9741 10.997 22.6474C10.6013 20.224 9.30084 18.0602 7.46329 16.762C7.20886 16.5889 6.95443 16.762 6.95443 17.0505C7.35021 22.1858 4.41013 26.6288 0.791561 30.5524C4.52321 31.7064 7.68945 26.8019 12.4954 28.504C14.2764 25.8787 16.4814 23.5706 19.0257 21.7531ZM33.4435 18.6661C30.3338 18.6661 27.7046 20.4548 27.0262 22.7917C26.9696 22.9648 27.0544 23.0802 27.2523 22.9936C27.8177 22.734 28.4397 22.6186 29.1464 22.6186C30.4186 22.6186 31.5494 23.109 32.1996 23.9168C32.4823 24.8978 32.5105 26.3403 32.1713 27.1481C31.6624 27.0327 31.4646 26.6288 30.9557 26.6288C30.4468 26.6288 30.0511 27.0038 29.1747 27.0038C28.2983 27.0038 28.2135 26.5711 27.6481 26.5711C26.9696 26.5711 26.8565 27.2635 26.8565 28.0713C26.8565 31.6199 30.0511 36.4955 33.4435 36.4955C36.8359 36.4955 40.0304 31.6199 40.0304 28.0713C40.0304 27.2635 39.8608 26.5999 39.1823 26.5134C38.843 26.773 38.5038 27.0038 37.7122 27.0038C36.8359 27.0038 36.6097 26.6288 36.1008 26.6288C35.4789 26.6288 35.5354 27.9559 34.8004 28.0424C34.3198 26.8596 34.2916 25.3017 34.6873 23.9457C35.3376 23.109 36.4684 22.6474 37.7405 22.6474C38.419 22.6474 39.0692 22.7628 39.6346 23.0225C39.8325 23.109 39.9173 22.9936 39.8608 22.8205C39.1823 20.4548 36.5532 18.6661 33.4435 18.6661V18.6661ZM38.419 23.7437C37.6557 23.7437 36.8076 23.9745 36.2422 24.6093C36.1857 24.7824 36.1857 25.042 36.2705 25.1863C37.6274 24.7247 38.8148 24.6958 39.4084 25.3594C39.7194 25.0709 39.8042 24.8112 39.8042 24.5227C39.8042 24.0611 39.3236 23.7437 38.419 23.7437V23.7437ZM27.5067 25.3594C28.157 24.6958 29.5422 24.7247 30.9557 25.244C31.0122 24.5227 29.7401 23.7149 28.4679 23.7149C27.535 23.7149 27.0827 24.0322 27.0827 24.4938C27.111 24.8112 27.1958 25.0709 27.5067 25.3594ZM48.992 13.3577C46.5325 13.5308 44.384 14.3963 42.6595 15.8388C43.3945 13.7039 44.3274 11.8574 45.5148 10.0687C42.3768 10.4149 39.7759 11.5689 37.8536 13.5885L36.3553 9.57828L39.6629 6.57785L35.2245 6.2605L33.4435 2.04837L31.6624 6.2605L27.224 6.57785L30.5316 9.57828L29.0333 13.5885C27.111 11.5978 24.5101 10.4149 21.3722 10.0687C22.5595 11.8574 23.4924 13.7327 24.2274 15.8388C22.503 14.3963 20.3544 13.5308 17.8949 13.3577C19.365 15.2906 20.6654 17.3678 21.6549 19.5893C21.7679 19.849 21.9941 19.9355 22.2485 19.7913C25.6127 18.0891 29.4008 17.1082 33.4435 17.1082C37.4578 17.1082 41.246 18.0602 44.6384 19.7913C44.8928 19.9355 45.119 19.849 45.2321 19.5893C46.1932 17.3678 47.5219 15.2906 48.992 13.3577V13.3577ZM54.3633 28.504C59.1975 26.8019 62.3637 31.6776 66.0954 30.5524C62.4768 26.6288 59.5367 22.1858 59.9325 17.0505C59.9608 16.762 59.6781 16.5889 59.4519 16.762C57.6143 18.0602 56.3139 20.224 55.9181 22.6474C53.3738 20.9741 50.3772 20.7433 47.8894 21.7531C50.4338 23.5706 52.6105 25.8787 54.3633 28.504Z" fill="#A0A3BD"/>
</svg>
